<?xml version="1.0" standalone="no"?>
<!DOCTYPE svg PUBLIC "-//W3C//DTD SVG 20010904//EN"
 "http://www.w3.org/TR/2001/REC-SVG-20010904/DTD/svg10.dtd">
<svg version="1.0" xmlns="http://www.w3.org/2000/svg"
 width="512.000000pt" height="512.000000pt" viewBox="0 0 512.000000 512.000000"
 preserveAspectRatio="xMidYMid meet">
<metadata>
Created by potrace 1.14, written by Peter Selinger 2001-2017
</metadata>
<g transform="translate(0.000000,512.000000) scale(0.100000,-0.100000)"
fill="#000000" stroke="none">
<path d="M309 5097 c-81 -28 -136 -64 -196 -131 -51 -57 -74 -99 -97 -175 -14
-49 -16 -248 -16 -2096 0 -2197 -2 -2092 49 -2194 30 -58 116 -147 175 -180
110 -64 55 -61 1331 -61 l1160 0 36 -24 c105 -72 292 -150 454 -192 46 -11 47
-11 95 -19 25 -4 56 -10 70 -12 64 -11 323 -10 412 3 699 97 1243 653 1327
1354 15 126 6 362 -17 475 -22 103 -55 217 -72 247 -6 10 -10 22 -10 28 0 19
-99 211 -136 265 -12 16 -14 211 -14 1186 0 1119 -1 1170 -19 1228 -40 128
-139 237 -264 290 l-62 26 -2070 2 -2070 3 -66 -23z"/>
</g>
</svg>
